<?xml version="1.0" encoding="UTF-8" standalone="no"?><!DOCTYPE svg PUBLIC "-//W3C//DTD SVG 1.1//EN" "http://www.w3.org/Graphics/SVG/1.1/DTD/svg11.dtd"><svg width="100%" height="100%" viewBox="0 0 100 100" version="1.1" xmlns="http://www.w3.org/2000/svg" xmlns:xlink="http://www.w3.org/1999/xlink" xml:space="preserve" xmlns:serif="http://www.serif.com/" style="fill-rule:evenodd;clip-rule:evenodd;stroke-linejoin:round;stroke-miterlimit:2;"><rect id="net" x="-0" y="-0" width="100" height="100" style="fill:none;"/><path id="Celluar-Network" serif:id="Celluar Network" d="M28.12,20.85c-5.08,4.225 -7.992,10.586 -7.992,17.445c0,6.804 2.875,13.13 7.886,17.355c1.116,0.938 1.285,2.644 0.38,3.798c-0.498,0.634 -1.237,1.001 -2.031,1.001c-0.598,0 -1.184,-0.218 -1.648,-0.607c-6.235,-5.259 -9.812,-13.111 -9.812,-21.547c0,-8.508 3.624,-16.403 9.946,-21.66c0.544,-0.451 1.219,-0.655 1.921,-0.579c0.696,0.079 1.316,0.432 1.753,0.998c0.897,1.162 0.718,2.865 -0.403,3.796Zm10.764,7.654c-2.844,2.364 -4.474,5.926 -4.474,9.77c0,3.812 1.609,7.354 4.416,9.721c1.11,0.939 1.281,2.645 0.374,3.798c-0.496,0.634 -1.237,1.001 -2.026,1.001c-0.601,0 -1.186,-0.217 -1.648,-0.606c-4.03,-3.398 -6.341,-8.47 -6.341,-13.914c0,-5.493 2.345,-10.589 6.428,-13.984c0.541,-0.452 1.227,-0.661 1.915,-0.58c0.696,0.077 1.319,0.43 1.756,0.996c0.9,1.165 0.718,2.868 -0.4,3.798Zm36.267,-11.87c6.319,5.259 9.946,13.152 9.946,21.66c-0,8.437 -3.577,16.291 -9.812,21.548c-0.464,0.389 -1.05,0.606 -1.648,0.606c-0.794,0 -1.533,-0.364 -2.029,-1.001c-0.907,-1.153 -0.738,-2.859 0.378,-3.798c5.013,-4.225 7.888,-10.551 7.888,-17.355c0,-6.859 -2.914,-13.217 -7.994,-17.445c-1.121,-0.931 -1.3,-2.634 -0.403,-3.796c0.435,-0.566 1.057,-0.919 1.753,-0.998c0.702,-0.076 1.377,0.128 1.921,0.579Zm-10.763,7.656c4.083,3.396 6.425,8.492 6.425,13.985c0,5.444 -2.31,10.515 -6.338,13.911c-0.464,0.391 -1.049,0.609 -1.648,0.609c-0.791,0 -1.53,-0.367 -2.028,-1.001c-0.905,-1.154 -0.736,-2.86 0.377,-3.801c2.806,-2.364 4.415,-5.907 4.415,-9.718c-0,-3.845 -1.633,-7.406 -4.473,-9.77c-1.121,-0.931 -1.301,-2.634 -0.404,-3.798c0.438,-0.566 1.063,-0.92 1.757,-0.996c0.691,-0.082 1.374,0.128 1.917,0.579Zm-14.388,5.6c4.271,-0 7.731,3.569 7.731,7.974c-0,3.387 -2.057,6.263 -4.945,7.417l-0,35.79c-0,1.595 -1.248,2.89 -2.786,2.89c-1.537,-0 -2.785,-1.295 -2.785,-2.89l0,-35.79c-2.888,-1.157 -4.945,-4.03 -4.945,-7.417c-0,-4.405 3.46,-7.974 7.73,-7.974Z" style="fill:#fff;"/></svg>