<?xml version="1.0" encoding="UTF-8" standalone="no"?><!DOCTYPE svg PUBLIC "-//W3C//DTD SVG 1.1//EN" "http://www.w3.org/Graphics/SVG/1.1/DTD/svg11.dtd"><svg width="200px" height="auto" viewBox="0 0 227 161" version="1.1" xmlns="http://www.w3.org/2000/svg" xmlns:xlink="http://www.w3.org/1999/xlink" xml:space="preserve" xmlns:serif="http://www.serif.com/" style="fill-rule:evenodd;clip-rule:evenodd;stroke-linejoin:round;stroke-miterlimit:1;"><rect id="xo-large" x="0" y="0" width="226.744" height="160.96" style="fill:none;"/><g><path d="M68.164,131.369c3.859,-0 13.609,-8.542 15.64,-10.169c3.249,-2.435 5.895,-0.407 7.93,0.813c0,0 14.043,8.135 24.015,0.814c5.291,-3.859 14.015,-9.941 14.015,-19.3c-0,-13.428 -3.432,-11.19 -3.432,-8.545l-0.204,2.645c-0.814,9.562 -5.698,18.709 -14.653,14.445c-0.814,-0.204 -1.628,-0.814 -2.442,-1.424c-1.221,-1.221 -2.849,-3.459 -4.681,-6.918l-16.077,-30.314c-2.034,-3.662 -1.628,-6.917 0.814,-10.172c3.459,-3.866 7.326,-8.545 12.007,-13.835c5.088,-5.9 8.344,-9.766 9.565,-11.596c1.221,-1.422 2.646,-3.858 0.611,-5.483c-0.815,-0.609 -1.629,-1.218 -2.443,-1.421c-2.035,-1.015 -8.751,-4.061 -20.351,-9.138l-1.628,-0c-10.155,8.123 -10.155,8.123 -13.811,10.153c-0.609,0.406 -1.828,0.812 -3.25,1.218l-0.609,0c-1.626,0.61 -4.27,-1.015 -7.524,-5.279c-0.814,-1.015 -1.627,-1.827 -2.644,-2.639c-7.525,-6.301 -13.627,-0.609 -20.948,6.091c-1.424,1.218 -2.441,2.64 -2.848,3.858l0,1.421c0.204,0.609 0.814,1.219 1.831,1.422c2.847,1.424 4.474,2.034 4.677,2.034c4.475,2.442 7.932,5.9 10.373,10.783c1.83,3.459 7.118,13.428 15.457,29.297c1.016,2.035 0.813,4.069 -0.407,5.9l-21.355,28.888c-3.254,4.252 -1.627,9.332 3.051,10.553c-0,-0 17.084,5.898 19.321,5.898Zm16.046,-77.891c-1.219,-0 -6.703,-10.376 -8.328,-13.631c-0.609,-1.221 -0.203,-1.628 1.219,-2.034c1.422,-0.204 7.718,-0 16.668,5.289c0.407,0.203 0.407,0.61 0,1.017l-8.137,8.342c-0.61,0.813 -1.219,1.017 -1.422,1.017Zm-2.844,61.035l-17.269,-5.289l0.406,-0.814c2.644,-4.476 5.083,-7.935 7.317,-10.58c1.219,-1.627 1.828,-1.627 2.641,0l7.718,15.26c0.609,1.22 0.609,1.828 -0.813,1.423Z" style="fill:#fff;fill-rule:nonzero;"/><path d="M144.006,124.254l28.878,-13.21c4.471,-2.044 7.726,-2.861 9.963,-2.861c3.864,0.204 5.084,3.27 6.915,7.749c1.017,2.03 2.644,0.406 2.644,-1.015c-0,-12.404 -9.966,-11.997 -14.847,-10.576c-0.407,0.202 -1.22,0.404 -2.034,0.809l0,-67.131c0,-13.406 -10.157,-14.418 -20.923,-14.418l-26.449,0c-1.219,0 -2.031,0.809 -2.031,2.428c-0,1.619 0.812,2.428 2.031,2.428l19.725,-0l-6.521,5.29c-4.469,2.645 -8.126,4.069 -10.766,4.069c-1.829,0.203 -3.86,0.407 -6.298,0.407c-2.437,0.407 -3.656,2.034 -3.656,4.679l0,64.472c-0.203,12.618 12.391,22.978 23.369,16.88Zm4.075,-10.758c-4.075,0 -6.724,-1.839 -6.724,-8.144l-0,-62.45c-0,-4.883 3.056,-8.748 6.317,-8.748c3.668,-0 6.928,3.662 6.928,8.545l-0.203,62.653c-0,6.101 -2.242,8.144 -6.318,8.144Z" style="fill:#fff;fill-rule:nonzero;"/></g><g><path d="M165.732,89.944l7.097,12.292l-14.194,0l7.097,-12.292Z" style="fill:#f00;stroke:#f00;stroke-width:8px;"/></g></svg>