<?xml version="1.0" encoding="UTF-8" standalone="no"?>
<!DOCTYPE svg PUBLIC "-//W3C//DTD SVG 1.1//EN" "http://www.w3.org/Graphics/SVG/1.1/DTD/svg11.dtd">
<svg width="30px" height="30px" viewBox="0 0 100 100" version="1.1" xmlns="http://www.w3.org/2000/svg" xmlns:xlink="http://www.w3.org/1999/xlink" xml:space="preserve" xmlns:serif="http://www.serif.com/" style="fill-rule:evenodd;clip-rule:evenodd;stroke-linejoin:round;stroke-miterlimit:2;">
	<rect id="merveilles" x="-0" y="-0" width="100" height="100" style="fill:none;" />
	<clipPath id="_clip1">
		<rect x="-0" y="-0" width="100" height="100" />
	</clipPath>
	<g clip-path="url(#_clip1)">
		<g>
			<ellipse cx="16.667" cy="49.701" rx="16.667" ry="16.766" style="fill:#fff;" />
			<ellipse cx="50" cy="50" rx="16.667" ry="16.766" style="fill:#fff;" />
			<ellipse cx="83.333" cy="50" rx="16.667" ry="16.766" style="fill:#fff;" />
			<path d="M0.215,0.001c18.298,0.115 33.118,14.962 33.118,33.233l-33.333,-0l0,-33.234l0.215,0.001Z" style="fill:#fff;" />
			<path d="M0.215,99.999c18.298,-0.115 33.118,-14.962 33.118,-33.233l-33.333,0l0,33.234l0.215,-0.001Z" style="fill:#fff;" />
			<path d="M33.549,0.001c18.298,0.115 33.118,14.962 33.118,33.233l-33.334,-0l0,-33.234l0.216,0.001Z" style="fill:#fff;" />
			<path d="M33.549,99.999c18.298,-0.115 33.118,-14.962 33.118,-33.233l-33.334,0l0,33.234l0.216,-0.001Z" style="fill:#fff;" />
			<path d="M99.785,0.001c-18.298,0.115 -33.118,14.962 -33.118,33.233l33.333,-0l0,-33.234l-0.215,0.001Z" style="fill:#fff;" />
			<path d="M99.785,99.999c-18.298,-0.115 -33.118,-14.962 -33.118,-33.233l33.333,0l0,33.234l-0.215,-0.001Z" style="fill:#fff;" />
			<path d="M66.451,0.001c-18.298,0.115 -33.118,14.962 -33.118,33.233l33.334,-0l-0,-33.234l-0.216,0.001Z" style="fill:#fff;" />
			<path d="M66.451,99.999c-18.298,-0.115 -33.118,-14.962 -33.118,-33.233l33.334,0l-0,33.234l-0.216,-0.001Z" style="fill:#fff;" />
		</g>
	</g>
</svg>
